<?xml version="1.0" standalone="no"?>
<!DOCTYPE svg PUBLIC "-//W3C//DTD SVG 1.1//EN" "http://www.w3.org/Graphics/SVG/1.1/DTD/svg11.dtd">
<svg width="100%" height="100%" viewBox="0 0 12 12" xmlns="http://www.w3.org/2000/svg" version="1.1">
<title>CC</title>

<path d="
M 1 1 h 9 v 10 h -9 z
" stroke="red" fill="transparent" stroke-width=".01"/>
<path d="
M 2 2 h 6 v 2 h 1 v 6 h -3 v -1 h -4 z
" stroke="red" fill="transparent" stroke-width=".01"/>

<path d="
M 2 2 h 2 v 1 h -1 v 1 h 1 v 1 h -2 z
" stroke="black" fill="transparent" stroke-width=".01"/>
<path d="
M 4 2 h 2 v 1 h -1 v 3 h -1 z
" stroke="black" fill="transparent" stroke-width=".01"/>
<path d="
M 6 2 h 2 v 2 h 1 v 1 h -2 v -2 h -1 z
" stroke="black" fill="transparent" stroke-width=".01"/>
<path d="
M 5 3 h 2 v 2 h -1 v 1 h -1 z
" stroke="black" fill="transparent" stroke-width=".01"/>
<path d="
M 2 5 h 1 v 1 h 2 v 1 h -2 v 1 h -1 z
" stroke="black" fill="transparent" stroke-width=".01"/>
<path d="
M 2 8 h 1 v -1 h 2 v 1 h -1 v 1 h -2 z
" stroke="black" fill="transparent" stroke-width=".01"/>
<path d="
M 5 6 h 1 v 3 h -2 v -1 h 1 z
" stroke="black" fill="transparent" stroke-width=".01"/>
<path d="
M 6 5 h 3 v 3 h -1 v -2 h -2 z
" stroke="black" fill="transparent" stroke-width=".01"/>
<path d="
M 6 6 h 1 v 4 h -1 z
" stroke="black" fill="transparent" stroke-width=".01"/>
<path d="
M 7 6 h 1 v 2 h 1 v 2 h -1 v -1 h -1 z
" stroke="black" fill="transparent" stroke-width=".01"/>

</svg>
