<?xml version="1.0" standalone="no"?>
<!DOCTYPE svg PUBLIC "-//W3C//DTD SVG 1.1//EN" "http://www.w3.org/Graphics/SVG/1.1/DTD/svg11.dtd">
<svg data-v-73399298="" xmlns="http://www.w3.org/2000/svg" version="1.1" width="692.3767411980643" height="613.6067411980644" viewBox="-10 -10 800 720">
  <!---->
  <svg data-v-73399298="" overflow="visible">
    <clipPath data-v-73399298="" id="layer-clip-path_traditional">
      <path data-v-73399298="" class="svg-cutting" d=" M162.18781962300142,6.5  L197.4121803769986,6.5  L201.1621803769986,0  L240.43781962300142,0  L244.18781962300142,6.5  L284.4,6.5  L284.4,82.67939020131553  L285.1096020628809,86.05000000000001  L360.5943100223597,86.05000000000001  L360.678871631631,160.31520089804408  L376.79255526660273,113.51766675728342  L379.5038511388129,108.39424010502822  L383.92801531372885,104.06691902845414  L389.46064210240564,101.29401855008076  L395.18724896383713,100.39999999994572  L525.1790107102086,100.40000001813785  L530.8288548374871,101.26968386534122  L536.3027626176834,103.96943295486741  L540.7112455333408,108.19029217315592  L543.4594950450914,113.20024203344968  L560.9020435855831,161.12324241817285  L560.9707411569198,124.65181198525148  L561.9385379622661,118.54138343959856  L564.9302206251284,112.66987561632726  L569.5898756163273,108.01022062512854  L575.4613834393442,105.01853796239568  L582.0263717816233,103.97874595731768  L600.7394493013314,107.37062969049923  L617.553752048888,117.17518655551648  L630.7675049936083,132.29719265029183  L639.1813842492031,151.19509587648952  L641.7426405281727,169.70157271630742  L645.1699999999998,173.12893218813454  L645.1699999999998,393.2710678112951  L641.7426405287534,396.6984272838765  L639.1813842491686,415.2049041235883  L630.7675049936083,434.10280734970814  L617.553752048888,449.2248134444835  L600.7394493012354,459.0293703095568  L582.0263717812234,462.4212540419592  L575.4613834395984,461.3814620377338  L569.5898756163273,458.3897793748714  L564.9302206251284,453.7301243836727  L561.9385379622661,447.8586165604014  L560.9707411569198,441.7481880147485  L560.9020435707871,405.27674972673566  L543.4601846000428,453.1978630964237  L540.7113601733995,458.2095980658315  L536.3027626176831,462.43056704513265  L530.8288548474444,465.1303161297478  L525.1790107331752,466.0000000000396  L395.18724898075885,465.99999998658154  L389.4606421096737,465.1059814535619  L383.92801531372885,462.3330809715459  L379.5036209844908,458.0055347786312  L376.791224157286,452.87846875723363  L360.67887160685933,406.08482085739246  L360.5943100223597,480.34999999999997  L285.1096020628809,480.34999999999997  L284.4,483.72060979868434  L284.4,559.9  L243.8901699437495,559.9  L240.6401699437495,566.4  L200.95983005625052,566.4  L197.70983005625052,559.9  L161.8901699437495,559.9  L158.6401699437495,566.4  L118.95983005625052,566.4  L115.70983005625051,559.9  L75.2,559.9  L75.2,483.72060979868445  L74.10092425290853,478.5  L0,478.5  L0,87.9  L74.10092425290853,87.9  L75.2,82.67939020131553  L75.2,6.5  L115.41218037699859,6.5  L119.1621803769986,0  L158.43781962300142,0  Z " stroke-width="1.9068913732688135" stroke="#333333" fill="none"> </path>
    </clipPath>
  </svg>
  <svg data-v-73399298="" x="0" y="0" width="1px" height="1px" overflow="visible" viewBox="0 0 1 1">
    <g data-v-73399298="">
      <path data-v-73399298="" id="knifeFace_F" stroke-width="1.9068913732688135" fill="#ffffff" d=" M352.59999999999997,173.4  L558.9699999999999,173.4  L558.9699999999999,383  L352.5999999999999,383  L352.5999999999999,173.4  Z "> </path>
      <path data-v-73399298="" id="knifeFace_FT" stroke-width="1.9068913732688135" fill="#ffffff" d=" M352.59999999999997,173.4  A3,3 0 0,0 355.4365557267979,171.37670446337148  L376.39241235830184,110.51647768314265  A15,15 0 0,1 390.5751909922916,100.4  L519.7964372107924,100.4  A15,15 0 0,1 533.891826522581,110.26969785011498  L556.1509221376423,171.426060429977  A3,3 0 0,0 558.97,173.4  L352.6,173.4  Z "> </path>
      <path data-v-73399298="" id="knifeFace_FB" stroke-width="1.9068913732688135" fill="#ffffff" d=" M352.59999999999997,383  L558.97,383  A3,3 0 0,0 556.1509221376423,384.97393957002294  L533.891826522581,446.130302149885  A15,15 0 0,1 519.7964372107924,456  L390.5751909922916,456  A15,15 0 0,1 376.39241235830184,445.88352231685735  L355.4365557267979,385.0232955366285  A3,3 0 0,0 352.59999999999997,383  Z "> </path>
      <path data-v-73399298="" id="knifeFace_FR" stroke-width="1.9068913732688135" fill="#ffffff" d=" M558.9699999999999,173.4  A2,2 0 0,0 560.9699999999999,171.4  L560.9699999999999,167.05  L632.0199999999999,167.05  L635.1699999999998,170.20000000000002  L635.1699999999998,386.2  L632.0199999999999,389.34999999999997  L560.9699999999999,389.34999999999997  L560.9699999999999,384.99999999999994  A2,2 0 0,0 558.9699999999999,382.99999999999994  L558.9699999999999,173.39999999999995  Z "> </path>
      <path data-v-73399298="" id="knifeFace_FRT" stroke-width="1.9068913732688135" fill="#ffffff" d=" M560.9699999999999,167.05  L560.9699999999999,120.05000000000001  A16,16 0 0,1 576.9699999999999,104.05000000000001  A55.05,63 0 0,1 632.0199999999999,167.05  L560.9699999999999,167.05  Z "> </path>
      <path data-v-73399298="" id="knifeFace_FRB" stroke-width="1.9068913732688135" fill="#ffffff" d=" M560.9699999999999,389.34999999999997  L632.0199999999999,389.34999999999997  A55.05,63 0 0,1 576.9699999999999,452.34999999999997  A16,16 0 0,1 560.9699999999999,436.34999999999997  L560.9699999999999,389.34999999999997  Z "> </path>
      <path data-v-73399298="" id="knifeFace_FL" stroke-width="1.9068913732688135" fill="#ffffff" d=" M276.4,165.05  A2,2 0 0,0 278.4,167.05  L350.59999999999997,167.05  L350.59999999999997,171.4  A2,2 0 0,0 352.59999999999997,173.4  L352.59999999999997,383  A2,2 0 0,0 350.59999999999997,385  L350.59999999999997,389.35  L278.4,389.35  A2,2 0 0,0 276.4,391.35  L276.4,165.05000000000004  Z "> </path>
      <path data-v-73399298="" id="knifeFace_HL" stroke-width="1.9068913732688135" fill="#ffffff" d=" M73.2,389.5  A2,2 0 0,0 71.2,387.5  L0,387.5  L0,168.9  L71.2,168.9  A2,2 0 0,0 73.2,166.9  L73.2,389.5  Z "> </path>
      <path data-v-73399298="" id="knifeFace_HLT" stroke-width="1.9068913732688135" fill="#ffffff" d=" M0,168.9  L0,87.9  L69.2,87.9  L69.2,164.9  L69.2,166.9  A2,2 0 0,0 71.2,168.9  L0,168.9  Z "> </path>
      <path data-v-73399298="" id="knifeFace_HLB" stroke-width="1.9068913732688135" fill="#ffffff" d=" M0,387.5  L71.2,387.5  A2,2 0 0,0 69.2,389.5  L69.2,391.5  L69.2,468.5  L0,468.5  L0,387.5  Z "> </path>
      <path data-v-73399298="" id="knifeFace_FLT" stroke-width="1.9068913732688135" fill="#ffffff" d=" M278.4,167.05  A2,2 0 0,0 280.4,165.05  L280.4,163.05  L280.4,86.05000000000001  L350.59999999999997,86.05000000000001  L350.59999999999997,167.05  L278.4,167.05  Z "> </path>
      <path data-v-73399298="" id="knifeFace_FLB" stroke-width="1.9068913732688135" fill="#ffffff" d=" M278.4,389.34999999999997  L350.59999999999997,389.34999999999997  L350.59999999999997,470.34999999999997  L280.4,470.34999999999997  L280.4,393.34999999999997  L280.4,391.34999999999997  A2,2 0 0,0 278.4,389.34999999999997  Z "> </path>
      <path data-v-73399298="" id="knifeFace_H" stroke-width="1.9068913732688135" fill="#ffffff" d=" M73.2,163.9  L118.05,163.9  A4.75,4.75 0 0,0 113.3,168.65  L113.3,168.65  A4.75,4.75 0 0,0 118.05,173.4  L149.55,173.4  A4.75,4.75 0 0,0 154.3,168.65  L154.3,168.65  A4.75,4.75 0 0,0 149.55,163.9  L200.05,163.9  A4.75,4.75 0 0,0 195.3,168.65  L195.3,168.65  A4.75,4.75 0 0,0 200.05,173.4  L231.55,173.4  A4.75,4.75 0 0,0 236.3,168.65  L236.3,168.65  A4.75,4.75 0 0,0 231.55,163.9  L276.4,163.9  L276.4,392.5  L231.54999999999998,392.5  A4.75,4.75 0 0,0 236.29999999999998,387.75  L236.29999999999998,387.75  A4.75,4.75 0 0,0 231.54999999999998,383  L200.04999999999998,383  A4.75,4.75 0 0,0 195.29999999999998,387.75  L195.29999999999998,387.75  A4.75,4.75 0 0,0 200.04999999999998,392.5  L149.54999999999998,392.5  A4.75,4.75 0 0,0 154.29999999999998,387.75  L154.29999999999998,387.75  A4.75,4.75 0 0,0 149.54999999999998,383  L118.04999999999998,383  A4.75,4.75 0 0,0 113.29999999999998,387.75  L113.29999999999998,387.75  A4.75,4.75 0 0,0 118.04999999999998,392.5  L73.19999999999999,392.5  L73.19999999999999,163.9  Z "> </path>
      <path data-v-73399298="" id="knifeFace_T" stroke-width="1.9068913732688135" fill="#ffffff" d=" M73.2,163.9  L73.2,87.7  L276.4,87.7  L276.4,163.9  L73.19999999999999,163.9  Z "> </path>
      <path data-v-73399298="" id="knifeFace_B" stroke-width="1.9068913732688135" fill="#ffffff" d=" M73.2,392.5  L276.4,392.5  L276.4,468.7  L73.2,468.7  L73.2,392.5  Z "> </path>
      <path data-v-73399298="" id="knifeFace_TT" stroke-width="1.9068913732688135" fill="#ffffff" d=" M73.2,87.7  L75.2,78.2  L274.4,78.2  L276.4,87.7  L73.19999999999999,87.7  Z "> </path>
      <path data-v-73399298="" id="knifeFace_BB" stroke-width="1.9068913732688135" fill="#ffffff" d=" M73.2,468.7  L276.4,468.7  L274.4,478.2  L75.2,478.2  L73.2,468.7  Z "> </path>
      <path data-v-73399298="" id="knifeFace_HT" stroke-width="1.9068913732688135" fill="#ffffff" d=" M75.2,78.2  L75.2,6.5  L113.3,6.5  L117.05,0  L150.55,0  L154.3,6.5  L195.3,6.5  L199.05,0  L232.55,0  L236.3,6.5  L274.4,6.5  L274.4,78.2  L75.19999999999999,78.2  Z "> </path>
      <path data-v-73399298="" id="knifeFace_HB" stroke-width="1.9068913732688135" fill="#ffffff" d=" M75.2,478.2  L274.4,478.2  L274.4,549.9  L235.8,549.9  L232.55,556.4  L199.05,556.4  L195.8,549.9  L153.8,549.9  L150.55,556.4  L117.05,556.4  L113.8,549.9  L75.2,549.9  L75.2,478.2  Z "> </path>
    </g>
    <path data-v-73399298="" transform="translate(-5, -5)" stroke-width="1.9068913732688135" stroke="#46ba00" fill="transparent" d=" M162.18781962300142,6.5  L197.4121803769986,6.5  L201.1621803769986,0  L240.43781962300142,0  L244.18781962300142,6.5  L284.4,6.5  L284.4,82.67939020131553  L285.1096020628809,86.05000000000001  L360.5943100223597,86.05000000000001  L360.678871631631,160.31520089804408  L376.79255526660273,113.51766675728342  L379.5038511388129,108.39424010502822  L383.92801531372885,104.06691902845414  L389.46064210240564,101.29401855008076  L395.18724896383713,100.39999999994572  L525.1790107102086,100.40000001813785  L530.8288548374871,101.26968386534122  L536.3027626176834,103.96943295486741  L540.7112455333408,108.19029217315592  L543.4594950450914,113.20024203344968  L560.9020435855831,161.12324241817285  L560.9707411569198,124.65181198525148  L561.9385379622661,118.54138343959856  L564.9302206251284,112.66987561632726  L569.5898756163273,108.01022062512854  L575.4613834393442,105.01853796239568  L582.0263717816233,103.97874595731768  L600.7394493013314,107.37062969049923  L617.553752048888,117.17518655551648  L630.7675049936083,132.29719265029183  L639.1813842492031,151.19509587648952  L641.7426405281727,169.70157271630742  L645.1699999999998,173.12893218813454  L645.1699999999998,393.2710678112951  L641.7426405287534,396.6984272838765  L639.1813842491686,415.2049041235883  L630.7675049936083,434.10280734970814  L617.553752048888,449.2248134444835  L600.7394493012354,459.0293703095568  L582.0263717812234,462.4212540419592  L575.4613834395984,461.3814620377338  L569.5898756163273,458.3897793748714  L564.9302206251284,453.7301243836727  L561.9385379622661,447.8586165604014  L560.9707411569198,441.7481880147485  L560.9020435707871,405.27674972673566  L543.4601846000428,453.1978630964237  L540.7113601733995,458.2095980658315  L536.3027626176831,462.43056704513265  L530.8288548474444,465.1303161297478  L525.1790107331752,466.0000000000396  L395.18724898075885,465.99999998658154  L389.4606421096737,465.1059814535619  L383.92801531372885,462.3330809715459  L379.5036209844908,458.0055347786312  L376.791224157286,452.87846875723363  L360.67887160685933,406.08482085739246  L360.5943100223597,480.34999999999997  L285.1096020628809,480.34999999999997  L284.4,483.72060979868434  L284.4,559.9  L243.8901699437495,559.9  L240.6401699437495,566.4  L200.95983005625052,566.4  L197.70983005625052,559.9  L161.8901699437495,559.9  L158.6401699437495,566.4  L118.95983005625052,566.4  L115.70983005625051,559.9  L75.2,559.9  L75.2,483.72060979868445  L74.10092425290853,478.5  L0,478.5  L0,87.9  L74.10092425290853,87.9  L75.2,82.67939020131553  L75.2,6.5  L115.41218037699859,6.5  L119.1621803769986,0  L158.43781962300142,0  Z "> </path>
    <g data-v-73399298="">
      <path data-v-73399298="" stroke-width="1.9068913732688135" stroke="#2028b0" fill="none" d=" M632.02,167.05  L635.1699999999998,170.20000000000002  L635.1699999999998,386.2  L632.0199999999999,389.34999999999997  A55.05,63 0 0,1 576.9699999999999,452.34999999999997  A16,16 0 0,1 560.9699999999999,436.34999999999997  L560.9699999999999,389.34999999999997  L560.9699999999999,384.99999999999994  A2,2 0 0,0 558.9699999999999,382.99999999999994  A3,3 0 0,0 556.1509221376423,384.97393957002294  L533.891826522581,446.130302149885  A15,15 0 0,1 519.7964372107924,456  L390.5751909922916,456  A15,15 0 0,1 376.39241235830184,445.88352231685735  L355.4365557267979,385.0232955366285  A3,3 0 0,0 352.59999999999997,383  A2,2 0 0,0 350.59999999999997,385  L350.59999999999997,470.34999999999997  L280.4,470.34999999999997  L280.4,393.34999999999997  L280.4,391.34999999999997  A2,2 0 0,0 278.4,389.34999999999997  A2,2 0 0,0 276.4,391.35  L276.4,468.7  L274.4,478.2  L274.4,549.9  L235.8,549.9  L232.55,556.4  L199.05,556.4  L195.8,549.9  L153.8,549.9  L150.55,556.4  L117.05,556.4  L113.8,549.9  L75.2,549.9  L75.2,478.2  L73.2,468.7  L73.2,392.5  L73.2,389.5  A2,2 0 0,0 71.2,387.5  A2,2 0 0,0 69.2,389.5  L69.2,391.5  L69.2,468.5  L0,468.5  L0,387.5  L0,87.9  L69.2,87.9  L69.2,164.9  L69.2,166.9  A2,2 0 0,0 71.2,168.9  A2,2 0 0,0 73.2,166.9  L73.2,87.7  L75.2,78.2  L75.2,6.5  L113.3,6.5  L117.05,0  L150.55,0  L154.3,6.5  L195.3,6.5  L199.05,0  L232.55,0  L236.3,6.5  L274.4,6.5  L274.4,78.2  L276.4,87.7  L276.4,165.05  A2,2 0 0,0 278.4,167.05  A2,2 0 0,0 280.4,165.05  L280.4,163.05  L280.4,86.05000000000001  L350.59999999999997,86.05000000000001  L350.59999999999997,167.05  L350.59999999999997,171.4  A2,2 0 0,0 352.59999999999997,173.4  A3,3 0 0,0 355.4365557267979,171.37670446337148  L376.39241235830184,110.51647768314265  A15,15 0 0,1 390.5751909922916,100.4  L519.7964372107924,100.4  A15,15 0 0,1 533.891826522581,110.26969785011498  L556.1509221376423,171.426060429977  A3,3 0 0,0 558.97,173.4  A2,2 0 0,0 560.9699999999999,171.4  L560.9699999999999,167.05  L560.9699999999999,120.05000000000001  A16,16 0 0,1 576.9699999999999,104.05000000000001  A55.05,63 0 0,1 632.0199999999999,167.05  Z "> </path>
    </g>
    <g data-v-73399298="">
    <g data-v-73399298="">
      <line data-v-73399298="" stroke-width="1.9068913732688135" stroke="#fa0000" stroke-dasharray="1.4301685299516103 0.9534456866344068" x1="352.59999999999997" y1="173.4" x2="558.9699999999999" y2="173.4">
      </line>
      <!---->
    </g>
    <g data-v-73399298="">
      <line data-v-73399298="" stroke-width="1.9068913732688135" stroke="#fa0000" stroke-dasharray="1.4301685299516103 0.9534456866344068" x1="558.9699999999999" y1="173.4" x2="558.9699999999999" y2="383">
      </line>
      <!---->
    </g>
    <g data-v-73399298="">
      <line data-v-73399298="" stroke-width="1.9068913732688135" stroke="#fa0000" stroke-dasharray="1.4301685299516103 0.9534456866344068" x1="558.9699999999999" y1="383" x2="352.5999999999999" y2="383">
      </line>
      <!---->
    </g>
    <g data-v-73399298="">
      <line data-v-73399298="" stroke-width="1.9068913732688135" stroke="#fa0000" stroke-dasharray="1.4301685299516103 0.9534456866344068" x1="352.5999999999999" y1="383" x2="352.5999999999999" y2="173.4">
      </line>
      <!---->
    </g>
    <g data-v-73399298="">
      <line data-v-73399298="" stroke-width="1.9068913732688135" stroke="#fa0000" stroke-dasharray="1.4301685299516103 0.9534456866344068" x1="560.9699999999999" y1="167.05" x2="632.0199999999999" y2="167.05">
      </line>
      <!---->
    </g>
    <g data-v-73399298="">
      <line data-v-73399298="" stroke-width="1.9068913732688135" stroke="#fa0000" stroke-dasharray="1.4301685299516103 0.9534456866344068" x1="632.0199999999999" y1="389.34999999999997" x2="560.9699999999999" y2="389.34999999999997">
      </line>
      <!---->
    </g>
    <g data-v-73399298="">
      <line data-v-73399298="" stroke-width="1.9068913732688135" stroke="#fa0000" stroke-dasharray="1.4301685299516103 0.9534456866344068" x1="278.4" y1="167.05" x2="350.59999999999997" y2="167.05">
      </line>
      <!---->
    </g>
    <g data-v-73399298="">
      <line data-v-73399298="" stroke-width="1.9068913732688135" stroke="#fa0000" stroke-dasharray="1.4301685299516103 0.9534456866344068" x1="350.59999999999997" y1="389.35" x2="278.4" y2="389.35">
      </line>
      <!---->
    </g>
    <g data-v-73399298="">
      <line data-v-73399298="" stroke-width="1.9068913732688135" stroke="#fa0000" stroke-dasharray="1.4301685299516103 0.9534456866344068" x1="276.4" y1="391.35" x2="276.4" y2="165.05000000000004">
      </line>
      <!---->
    </g>
    <g data-v-73399298="">
      <line data-v-73399298="" stroke-width="1.9068913732688135" stroke="#fa0000" stroke-dasharray="1.4301685299516103 0.9534456866344068" x1="71.2" y1="387.5" x2="0" y2="387.5">
      </line>
      <!---->
    </g>
    <g data-v-73399298="">
      <line data-v-73399298="" stroke-width="1.9068913732688135" stroke="#fa0000" stroke-dasharray="1.4301685299516103 0.9534456866344068" x1="0" y1="168.9" x2="71.2" y2="168.9">
      </line>
      <!---->
    </g>
    <g data-v-73399298="">
      <line data-v-73399298="" stroke-width="1.9068913732688135" stroke="#fa0000" stroke-dasharray="1.4301685299516103 0.9534456866344068" x1="73.2" y1="166.9" x2="73.2" y2="389.5">
      </line>
      <!---->
    </g>
    <g data-v-73399298="">
      <line data-v-73399298="" stroke-width="1.9068913732688135" stroke="#fa0000" stroke-dasharray="1.4301685299516103 0.9534456866344068" x1="73.2" y1="163.9" x2="118.05" y2="163.9">
      </line>
      <!---->
    </g>
    <g data-v-73399298="">
      <line data-v-73399298="" stroke-width="1.9068913732688135" stroke="#fa0000" stroke-dasharray="1.4301685299516103 0.9534456866344068" x1="149.55" y1="163.9" x2="200.05" y2="163.9">
      </line>
      <!---->
    </g>
    <g data-v-73399298="">
      <line data-v-73399298="" stroke-width="1.9068913732688135" stroke="#fa0000" stroke-dasharray="1.4301685299516103 0.9534456866344068" x1="231.55" y1="163.9" x2="276.4" y2="163.9">
      </line>
      <!---->
    </g>
    <g data-v-73399298="">
      <line data-v-73399298="" stroke-width="1.9068913732688135" stroke="#fa0000" stroke-dasharray="1.4301685299516103 0.9534456866344068" x1="276.4" y1="392.5" x2="231.54999999999998" y2="392.5">
      </line>
      <!---->
    </g>
    <g data-v-73399298="">
      <line data-v-73399298="" stroke-width="1.9068913732688135" stroke="#fa0000" stroke-dasharray="1.4301685299516103 0.9534456866344068" x1="200.04999999999998" y1="392.5" x2="149.54999999999998" y2="392.5">
      </line>
      <!---->
    </g>
    <g data-v-73399298="">
      <line data-v-73399298="" stroke-width="1.9068913732688135" stroke="#fa0000" stroke-dasharray="1.4301685299516103 0.9534456866344068" x1="118.04999999999998" y1="392.5" x2="73.19999999999999" y2="392.5">
      </line>
      <!---->
    </g>
    <g data-v-73399298="">
      <line data-v-73399298="" stroke-width="1.9068913732688135" stroke="#fa0000" stroke-dasharray="1.4301685299516103 0.9534456866344068" x1="73.2" y1="87.7" x2="276.4" y2="87.7">
      </line>
      <!---->
    </g>
    <g data-v-73399298="">
      <line data-v-73399298="" stroke-width="1.9068913732688135" stroke="#fa0000" stroke-dasharray="1.4301685299516103 0.9534456866344068" x1="276.4" y1="468.7" x2="73.2" y2="468.7">
      </line>
      <!---->
    </g>
    <g data-v-73399298="">
      <line data-v-73399298="" stroke-width="1.9068913732688135" stroke="#fa0000" stroke-dasharray="1.4301685299516103 0.9534456866344068" x1="75.2" y1="78.2" x2="274.4" y2="78.2">
      </line>
      <!---->
    </g>
    <g data-v-73399298="">
      <line data-v-73399298="" stroke-width="1.9068913732688135" stroke="#fa0000" stroke-dasharray="1.4301685299516103 0.9534456866344068" x1="274.4" y1="478.2" x2="75.2" y2="478.2">
      </line>
      <!---->
    </g>
    </g>
    <g data-v-73399298="">
      <path data-v-73399298="" stroke-width="1.9068913732688135" stroke="#333333" fill="transparent" d=" M118.05,163.9  A4.75,4.75 0 0,0 113.3,168.65  L113.3,168.65  A4.75,4.75 0 0,0 118.05,173.4  L149.55,173.4  A4.75,4.75 0 0,0 154.3,168.65  L154.3,168.65  A4.75,4.75 0 0,0 149.55,163.9  L118.05000000000001,163.9  Z "> </path>
      <path data-v-73399298="" stroke-width="1.9068913732688135" stroke="#333333" fill="transparent" d=" M118.05,392.5  A4.75,4.75 0 0,1 113.3,387.75  L113.3,387.75  A4.75,4.75 0 0,1 118.05,383  L149.55,383  A4.75,4.75 0 0,1 154.3,387.75  L154.3,387.75  A4.75,4.75 0 0,1 149.55,392.5  L118.05000000000001,392.5  Z "> </path>
      <path data-v-73399298="" stroke-width="1.9068913732688135" stroke="#333333" fill="transparent" d=" M200.05,163.9  A4.75,4.75 0 0,0 195.3,168.65  L195.3,168.65  A4.75,4.75 0 0,0 200.05,173.4  L231.55,173.4  A4.75,4.75 0 0,0 236.3,168.65  L236.3,168.65  A4.75,4.75 0 0,0 231.55,163.9  L200.05,163.9  Z "> </path>
      <path data-v-73399298="" stroke-width="1.9068913732688135" stroke="#333333" fill="transparent" d=" M200.05,392.5  A4.75,4.75 0 0,1 195.3,387.75  L195.3,387.75  A4.75,4.75 0 0,1 200.05,383  L231.55,383  A4.75,4.75 0 0,1 236.3,387.75  L236.3,387.75  A4.75,4.75 0 0,1 231.55,392.5  L200.05,392.5  Z "> </path>
    </g>
  </svg>
  <g data-v-73399298="">
  <g data-v-b4e7cad7="" data-v-73399298="">
    <path data-v-b4e7cad7="" d="
    M220.4346331744568,163.89999999999998 L230.76536682554314,163.89999999999998     M225.59999999999997,163.89999999999998 L221.03463317445681,176.44324226470707     L230.16536682554312,176.44324226470707     L225.59999999999997,163.89999999999998     M225.59999999999997,163.89999999999998 L225.59999999999997,247.21301457506775 M225.59999999999997,392.5 L225.59999999999997,309.18698542493223     M225.59999999999997,392.5 L221.03463317445681,379.95675773529285     L230.16536682554312,379.95675773529285     L225.59999999999997,392.5     M220.4346331744568,392.5 L230.76536682554314,392.5" stroke="var(--primary-color)" stroke-width="1.9068913732688135" stroke-linecap="round" stroke-opacity="1" fill="var(--primary-color)">
    </path>
    <text data-v-b4e7cad7="" fill="var(--primary-color)" fill-opacity="1" text-anchor="middle" dominant-baseline="middle" font-size="26.69647922576339" transform="translate(225.59999999999997, 278.2) scale(1, 1)">9 in</text>
  </g>
  <g data-v-b4e7cad7="" data-v-73399298="">
    <path data-v-b4e7cad7="" d="
    M276.4,226.21536682554319 L276.4,215.88463317445684     M276.4,221.05 L288.94324226470707,225.6153668255432     L288.94324226470707,216.48463317445683     L276.4,221.05     M276.4,221.05 L352.6,221.05     M352.6,221.05 L340.05675773529293,225.6153668255432     L340.05675773529293,216.48463317445683     L352.6,221.05     M352.6,226.21536682554319 L352.6,215.88463317445684" stroke="var(--primary-color)" stroke-width="1.9068913732688135" stroke-linecap="round" stroke-opacity="1" fill="var(--primary-color)">
    </path>
    <text data-v-b4e7cad7="" fill="var(--primary-color)" fill-opacity="1" text-anchor="middle" dominant-baseline="middle" font-size="26.69647922576339" transform="translate(314.5, 263.95505711717635) scale(1, 1)">3 in</text>
  </g>
  <g data-v-b4e7cad7="" data-v-73399298="">
    <path data-v-b4e7cad7="" d="
    M73.19999999999999,340.5153668255432 L73.19999999999999,330.18463317445685     M73.19999999999999,335.35 L85.74324226470706,339.9153668255432     L85.74324226470706,330.78463317445687     L73.19999999999999,335.35     M73.19999999999999,335.35 L138.33070237261413,335.35 M276.4,335.35 L211.26929762738584,335.35     M276.4,335.35 L263.8567577352929,339.9153668255432     L263.8567577352929,330.78463317445687     L276.4,335.35     M276.4,340.5153668255432 L276.4,330.18463317445685" stroke="var(--primary-color)" stroke-width="1.9068913732688135" stroke-linecap="round" stroke-opacity="1" fill="var(--primary-color)">
    </path>
    <text data-v-b4e7cad7="" fill="var(--primary-color)" fill-opacity="1" text-anchor="middle" dominant-baseline="middle" font-size="26.69647922576339" transform="translate(174.79999999999998, 335.35) scale(1, 1)">8 in</text>
  </g>
  </g>
  <g data-v-73399298="">
  </g>
</svg>
